<svg width="400" height="400" viewBox="0 0 400 400" fill="none" xmlns="http://www.w3.org/2000/svg">
  <!-- Background glow effect -->
  <defs>
    <radialGradient id="glow" cx="50%" cy="50%" r="50%">
      <stop offset="0%" style="stop-color:#7c3aed;stop-opacity:0.3" />
      <stop offset="70%" style="stop-color:#8b5cf6;stop-opacity:0.1" />
      <stop offset="100%" style="stop-color:#a78bfa;stop-opacity:0" />
    </radialGradient>
    
    <linearGradient id="bodyGradient" x1="0%" y1="0%" x2="100%" y2="100%">
      <stop offset="0%" style="stop-color:#8b5cf6;stop-opacity:1" />
      <stop offset="50%" style="stop-color:#7c3aed;stop-opacity:1" />
      <stop offset="100%" style="stop-color:#5b21b6;stop-opacity:1" />
    </linearGradient>
    
    <linearGradient id="tentacleGradient" x1="0%" y1="0%" x2="100%" y2="100%">
      <stop offset="0%" style="stop-color:#a78bfa;stop-opacity:1" />
      <stop offset="100%" style="stop-color:#7c3aed;stop-opacity:1" />
    </linearGradient>
    
    <filter id="shadow" x="-50%" y="-50%" width="200%" height="200%">
      <feDropShadow dx="0" dy="10" stdDeviation="15" flood-color="#7c3aed" flood-opacity="0.3"/>
    </filter>
  </defs>
  
  <!-- Background glow -->
  <circle cx="200" cy="200" r="180" fill="url(#glow)" />
  
  <!-- Main octopus body -->
  <g filter="url(#shadow)">
    <!-- Body/Head -->
    <ellipse cx="200" cy="160" rx="80" ry="70" fill="url(#bodyGradient)" />
    
    <!-- Eyes -->
    <circle cx="170" cy="140" r="18" fill="#ffffff" />
    <circle cx="230" cy="140" r="18" fill="#ffffff" />
    
    <!-- Pupils -->
    <circle cx="175" cy="145" r="12" fill="#1e293b" />
    <circle cx="225" cy="145" r="12" fill="#1e293b" />
    
    <!-- Eye highlights -->
    <circle cx="180" cy="140" r="4" fill="#ffffff" />
    <circle cx="230" cy="140" r="4" fill="#ffffff" />
    
    <!-- Mouth -->
    <path d="M180 170 Q200 185 220 170" stroke="#ffffff" stroke-width="3" fill="none" stroke-linecap="round" />
    
    <!-- Tentacles - Left side -->
    <path d="M140 200 Q120 220 100 250 Q80 280 60 300 Q40 320 20 300 Q40 280 60 260 Q80 240 100 220 Q120 200 140 200" 
          fill="url(#tentacleGradient)" opacity="0.9" />
    
    <path d="M150 220 Q130 240 110 270 Q90 300 70 320 Q50 340 30 320 Q50 300 70 280 Q90 260 110 240 Q130 220 150 220" 
          fill="url(#tentacleGradient)" opacity="0.8" />
    
    <path d="M160 240 Q140 260 120 290 Q100 320 80 340 Q60 360 40 340 Q60 320 80 300 Q100 280 120 260 Q140 240 160 240" 
          fill="url(#tentacleGradient)" opacity="0.7" />
    
    <!-- Tentacles - Right side -->
    <path d="M260 200 Q280 220 300 250 Q320 280 340 300 Q360 320 380 300 Q360 280 340 260 Q320 240 300 220 Q280 200 260 200" 
          fill="url(#tentacleGradient)" opacity="0.9" />
    
    <path d="M250 220 Q270 240 290 270 Q310 300 330 320 Q350 340 370 320 Q350 300 330 280 Q310 260 290 240 Q270 220 250 220" 
          fill="url(#tentacleGradient)" opacity="0.8" />
    
    <path d="M240 240 Q260 260 280 290 Q300 320 320 340 Q340 360 360 340 Q340 320 320 300 Q300 280 280 260 Q260 240 240 240" 
          fill="url(#tentacleGradient)" opacity="0.7" />
    
    <!-- Bottom tentacles -->
    <path d="M180 230 Q160 250 140 280 Q120 310 100 330 Q80 350 60 330 Q80 310 100 290 Q120 270 140 250 Q160 230 180 230" 
          fill="url(#tentacleGradient)" opacity="0.6" />
    
    <path d="M220 230 Q240 250 260 280 Q280 310 300 330 Q320 350 340 330 Q320 310 300 290 Q280 270 260 250 Q240 230 220 230" 
          fill="url(#tentacleGradient)" opacity="0.6" />
    
    <!-- Suction cups on tentacles -->
    <circle cx="80" cy="270" r="6" fill="#ffffff" opacity="0.6" />
    <circle cx="70" cy="300" r="5" fill="#ffffff" opacity="0.5" />
    <circle cx="90" cy="320" r="4" fill="#ffffff" opacity="0.4" />
    
    <circle cx="320" cy="270" r="6" fill="#ffffff" opacity="0.6" />
    <circle cx="330" cy="300" r="5" fill="#ffffff" opacity="0.5" />
    <circle cx="310" cy="320" r="4" fill="#ffffff" opacity="0.4" />
    
    <circle cx="120" cy="300" r="5" fill="#ffffff" opacity="0.5" />
    <circle cx="280" cy="300" r="5" fill="#ffffff" opacity="0.5" />
    
    <!-- Body texture/pattern -->
    <ellipse cx="200" cy="160" rx="60" ry="50" fill="none" stroke="#ffffff" stroke-width="2" opacity="0.3" />
    <ellipse cx="200" cy="160" rx="40" ry="30" fill="none" stroke="#ffffff" stroke-width="1" opacity="0.2" />
    
    <!-- Decorative spots -->
    <circle cx="180" cy="180" r="3" fill="#ffffff" opacity="0.4" />
    <circle cx="220" cy="175" r="2" fill="#ffffff" opacity="0.3" />
    <circle cx="200" cy="190" r="2.5" fill="#ffffff" opacity="0.35" />
    <circle cx="160" cy="165" r="2" fill="#ffffff" opacity="0.3" />
    <circle cx="240" cy="165" r="2" fill="#ffffff" opacity="0.3" />
  </g>
  
  <!-- Floating particles/bubbles around the octopus -->
  <circle cx="100" cy="100" r="3" fill="#a78bfa" opacity="0.6">
    <animate attributeName="cy" values="100;80;100" dur="3s" repeatCount="indefinite" />
  </circle>
  <circle cx="320" cy="120" r="2" fill="#8b5cf6" opacity="0.5">
    <animate attributeName="cy" values="120;100;120" dur="4s" repeatCount="indefinite" />
  </circle>
  <circle cx="80" cy="180" r="2.5" fill="#7c3aed" opacity="0.4">
    <animate attributeName="cy" values="180;160;180" dur="5s" repeatCount="indefinite" />
  </circle>
  <circle cx="340" cy="200" r="2" fill="#a78bfa" opacity="0.6">
    <animate attributeName="cy" values="200;180;200" dur="3.5s" repeatCount="indefinite" />
  </circle>
  <circle cx="60" cy="300" r="1.5" fill="#8b5cf6" opacity="0.5">
    <animate attributeName="cy" values="300;280;300" dur="4.5s" repeatCount="indefinite" />
  </circle>
  <circle cx="350" cy="320" r="2" fill="#7c3aed" opacity="0.4">
    <animate attributeName="cy" values="320;300;320" dur="3.8s" repeatCount="indefinite" />
  </circle>
  
  <!-- Subtle animation for the main body -->
  <animateTransform attributeName="transform" type="translate" values="0,0; 0,-5; 0,0" dur="6s" repeatCount="indefinite" />
</svg>