<svg width="40" height="40" viewBox="0 0 40 40" fill="none" xmlns="http://www.w3.org/2000/svg">
  <!-- Background Circle -->
  <circle cx="20" cy="20" r="20" fill="url(#gradient)" />
  
  <!-- Octopus Body -->
  <ellipse cx="20" cy="18" rx="8" ry="6" fill="#ffffff" opacity="0.9" />
  
  <!-- Octopus Head -->
  <circle cx="20" cy="15" r="6" fill="#ffffff" />
  
  <!-- Eyes -->
  <circle cx="17.5" cy="13" r="1.5" fill="#7c3aed" />
  <circle cx="22.5" cy="13" r="1.5" fill="#7c3aed" />
  <circle cx="17.8" cy="12.7" r="0.5" fill="#ffffff" />
  <circle cx="22.8" cy="12.7" r="0.5" fill="#ffffff" />
  
  <!-- Tentacles -->
  <path d="M14 22 Q12 25 10 28 Q8 30 6 28 Q8 26 10 24 Q12 22 14 22" fill="#ffffff" opacity="0.8" />
  <path d="M16 23 Q14 26 12 29 Q10 31 8 29 Q10 27 12 25 Q14 23 16 23" fill="#ffffff" opacity="0.8" />
  <path d="M24 23 Q26 26 28 29 Q30 31 32 29 Q30 27 28 25 Q26 23 24 23" fill="#ffffff" opacity="0.8" />
  <path d="M26 22 Q28 25 30 28 Q32 30 34 28 Q32 26 30 24 Q28 22 26 22" fill="#ffffff" opacity="0.8" />
  
  <!-- Bottom tentacles -->
  <path d="M18 24 Q16 27 14 30 Q12 32 10 30 Q12 28 14 26 Q16 24 18 24" fill="#ffffff" opacity="0.7" />
  <path d="M22 24 Q24 27 26 30 Q28 32 30 30 Q28 28 26 26 Q24 24 22 24" fill="#ffffff" opacity="0.7" />
  
  <!-- Gradient Definition -->
  <defs>
    <linearGradient id="gradient" x1="0%" y1="0%" x2="100%" y2="100%">
      <stop offset="0%" style="stop-color:#7c3aed;stop-opacity:1" />
      <stop offset="100%" style="stop-color:#8b5cf6;stop-opacity:1" />
    </linearGradient>
  </defs>
</svg>